<svg id="レイヤー_1" data-name="レイヤー 1" xmlns="http://www.w3.org/2000/svg" viewBox="0 0 1500 1500"><defs><style>.cls-1{fill:#fefefe;}.cls-2,.cls-3{stroke:#ff2e63;stroke-linejoin:round;}.cls-2{stroke-width:59.98px;}.cls-3{stroke-width:40.05px;}</style></defs><title>icon</title><rect class="cls-1" width="1500" height="1500"/><polygon class="cls-2" points="528.21 706.42 585.03 706.42 679.09 868.87 622.27 868.87 528.21 706.42"/><polygon class="cls-2" points="493.49 792.48 472.36 865.54 539.12 865.54 493.49 792.48"/><polygon class="cls-2" points="678.46 868.87 728.51 706.42 690.04 706.42 639.99 868.87 678.46 868.87"/><polygon class="cls-2" points="731.28 638.8 734.68 626.29 716.2 626.29 712.8 638.8 731.28 638.8"/><polygon class="cls-2" points="841.45 873.71 891.5 711.26 853.02 711.26 802.98 873.71 841.45 873.71"/><polygon class="cls-2" points="962.2 873.67 964.93 865.67 846.3 865.67 843.57 873.67 962.2 873.67"/><polygon class="cls-2" points="1024.91 719.27 1027.64 711.26 884.64 711.26 881.91 719.27 1024.91 719.27"/><polygon class="cls-3" points="885.56 779.75 877.57 805.68 927.77 806.01 935.76 780.08 885.56 779.75"/><polygon class="cls-3" points="769.67 779.91 761.68 805.85 811.88 806.17 819.87 780.24 769.67 779.91"/></svg>