<svg id="レイヤー_1" data-name="レイヤー 1" xmlns="http://www.w3.org/2000/svg" viewBox="0 0 1500 1500"><defs><style>.cls-1{fill:#ff2e63;stroke:#ff2e63;stroke-miterlimit:10;stroke-width:2.44px;}</style></defs><title>logo</title><path class="cls-1" d="M186.63,814.84A73.11,73.11,0,0,0,54.39,833.27L2.88,1011.37a73.11,73.11,0,0,0,70.23,93.42H235.87a73.1,73.1,0,0,0,62-111.84Z"/><path class="cls-1" d="M767.48,665.27a73.11,73.11,0,0,0-69.87-94.64h-93.8a73.11,73.11,0,0,0-69.87,51.59L494.31,750.87,411.07,607.11a73.12,73.12,0,0,0-63.27-36.48H209.27A73.11,73.11,0,0,0,146,680.38l229.34,396.06a73.11,73.11,0,0,0,63.27,36.47H577.13a73,73,0,0,0,72.71-65.77Z"/><path class="cls-1" d="M659.3,552h45.06a73.1,73.1,0,0,0,70.55-53.93l8.3-30.51a73.1,73.1,0,0,0-70.55-92.28H667.59A73.11,73.11,0,0,0,597,429.22l-8.29,30.51A73.11,73.11,0,0,0,659.3,552Z"/><path class="cls-1" d="M1486.34,613a73.09,73.09,0,0,0-59.45-30.56H1001.17A73.1,73.1,0,0,0,931.31,634L888,774.7l-89.7-.59H798a48.82,48.82,0,0,0-46.65,34.44l-19.48,63.23A48.81,48.81,0,0,0,778.15,935l60.32.39-29.18,94.72a73.1,73.1,0,0,0,69.87,94.63H973c1.14,0,2.27-.08,3.41-.13.59,0,1.17.05,1.76.05h289.21a73.11,73.11,0,0,0,69.2-49.51l6.66-19.53a73.11,73.11,0,0,0-69.2-96.71H1078l7.44-24.15,97.63.64h.32a48.8,48.8,0,0,0,46.64-34.44l19.49-63.23a48.82,48.82,0,0,0-46.34-63.19l-68.24-.44,8-25.89h277.29a73.11,73.11,0,0,0,69.2-49.51l6.66-19.53A73.12,73.12,0,0,0,1486.34,613Z"/></svg>